<?xml version="1.0" standalone="no"?>
<!DOCTYPE svg PUBLIC "-//W3C//DTD SVG 20010904//EN"
 "http://www.w3.org/TR/2001/REC-SVG-20010904/DTD/svg10.dtd">
<svg version="1.0" xmlns="http://www.w3.org/2000/svg"
 width="500.000000pt" height="500.000000pt" viewBox="0 0 500.000000 500.000000"
 preserveAspectRatio="xMidYMid meet">
<metadata>
Created by potrace 1.14, written by Peter Selinger 2001-2017
</metadata>
<g transform="translate(0.000000,500.000000) scale(0.100000,-0.100000)"
fill="#000000" stroke="none">
<path d="M0 2500 l0 -2500 2500 0 2500 0 0 2500 0 2500 -2500 0 -2500 0 0
-2500z m3250 1561 c453 -154 692 -653 525 -1096 -100 -267 -342 -473 -622
-531 -57 -12 -112 -15 -208 -12 -112 4 -143 9 -224 37 -52 18 -130 53 -173 78
-81 49 -209 168 -260 244 -133 198 -181 461 -123 683 41 159 105 271 221 388
89 90 197 159 314 201 112 41 151 46 310 43 133 -2 153 -5 240 -35z m-1555
-2235 c28 -18 33 -47 10 -66 -11 -9 -25 -9 -63 0 -117 30 -202 -33 -202 -150
0 -117 78 -174 203 -148 62 13 76 7 77 -34 0 -43 -119 -69 -203 -44 -71 21
-114 57 -143 121 -58 124 -10 264 110 322 43 20 62 23 118 20 39 -3 78 -11 93
-21z m518 10 c64 -26 88 -74 48 -96 -15 -8 -28 -5 -57 12 -53 31 -130 30 -155
-1 -23 -29 -23 -34 -1 -60 10 -12 48 -28 95 -41 119 -31 147 -58 147 -138 0
-85 -69 -137 -180 -136 -88 0 -160 41 -160 90 0 35 31 38 86 9 58 -31 123 -30
156 3 45 44 -1 89 -109 107 -115 19 -166 127 -101 211 12 14 35 32 52 40 40
17 138 18 179 0z m231 -2 c12 -12 16 -36 16 -100 l0 -84 105 0 105 0 0 84 c0
64 4 88 16 100 21 22 40 20 58 -6 13 -18 16 -56 16 -208 0 -102 -3 -195 -6
-208 -8 -26 -48 -39 -69 -22 -11 9 -15 35 -15 101 l0 89 -105 0 -105 0 0 -88
c0 -55 -4 -92 -12 -100 -18 -18 -56 -14 -68 7 -6 12 -10 99 -10 213 0 159 3
198 16 216 18 26 37 28 58 6z m710 0 c9 -8 16 -21 16 -28 0 -28 -25 -36 -122
-36 l-98 0 0 -55 0 -55 79 0 c80 0 111 -12 111 -44 0 -27 -26 -36 -107 -36
l-83 0 0 -60 0 -60 94 0 c73 0 98 -4 110 -16 19 -19 20 -36 4 -52 -17 -17
-269 -17 -286 0 -9 9 -12 71 -12 219 0 175 2 210 16 223 23 23 255 23 278 0z
m284 -145 l127 -161 5 152 c4 128 8 155 22 163 12 8 21 7 32 -2 23 -19 24
-432 1 -451 -30 -25 -60 1 -175 150 -63 82 -118 149 -122 150 -4 0 -9 -69 -10
-152 -3 -138 -5 -153 -21 -156 -44 -9 -47 8 -47 234 0 192 2 214 18 223 9 6
23 11 30 11 7 0 70 -72 140 -161z m-1567 -240 c8 -16 8 -28 0 -46 -9 -20 -17
-24 -44 -21 -27 3 -33 8 -35 31 -5 43 4 57 37 57 21 0 34 -7 42 -21z m34 -504
c28 -27 30 -42 14 -79 -13 -29 -38 -41 -52 -27 -7 7 -15 7 -23 0 -7 -6 -22 -8
-34 -4 -26 8 -27 48 0 75 22 22 36 25 45 10 4 -6 11 -7 17 -4 6 4 9 -6 6 -27
-4 -42 13 -51 30 -15 17 34 7 65 -26 77 -50 19 -116 -16 -123 -66 -9 -60 26
-94 86 -83 13 3 22 1 19 -3 -3 -5 -23 -9 -44 -9 -30 0 -43 6 -59 26 -25 32
-26 55 -6 94 31 59 108 78 150 35z m410 -25 c24 20 54 2 61 -35 3 -19 2 -43
-2 -52 -6 -13 -9 -5 -12 30 -3 46 -5 48 -30 45 -24 -3 -28 -8 -33 -48 -5 -34
-6 -26 -6 35 0 44 2 65 4 47 4 -27 7 -31 18 -22z m635 -22 l0 -73 -40 -3 c-30
-2 -41 2 -50 17 -26 49 3 97 52 87 25 -5 28 -3 28 19 0 14 2 25 5 25 3 0 5
-33 5 -72z m-875 22 c4 -7 -2 -9 -17 -5 -17 4 -29 0 -43 -14 -15 -18 -16 -25
-6 -47 10 -22 16 -25 42 -20 19 3 28 2 24 -4 -3 -6 -19 -10 -35 -10 -46 0 -66
55 -33 92 18 20 58 24 68 8z m135 0 c12 -8 8 -10 -14 -8 -40 4 -45 -20 -7 -33
33 -12 43 -45 16 -55 -20 -8 -65 4 -65 16 0 6 8 5 19 -1 19 -13 51 -6 51 10 0
5 -13 14 -30 20 -41 14 -42 61 -1 61 9 0 23 -5 31 -10z m311 0 c10 -6 19 -20
19 -30 0 -17 -7 -20 -41 -20 -42 0 -49 -14 -16 -34 12 -8 22 -7 37 2 11 7 20
8 20 2 0 -12 -45 -24 -65 -16 -8 3 -20 17 -27 30 -9 20 -8 30 6 51 18 27 36
31 67 15z m167 -2 c7 -7 11 -32 11 -57 l-2 -46 -6 40 c-7 42 -17 65 -29 65
-21 -1 -36 -23 -42 -62 l-7 -43 -2 52 c-1 41 2 52 17 56 32 8 48 7 60 -5z
m416 -10 c21 -29 12 -38 -35 -38 -37 0 -39 -1 -28 -21 8 -17 17 -20 40 -15 19
3 28 2 24 -4 -11 -18 -64 -11 -75 9 -33 63 34 126 74 69z m142 -19 c10 25 19
40 21 35 3 -10 -34 -104 -42 -104 -6 0 -45 91 -45 104 1 6 12 -9 24 -34 l24
-45 18 44z m-456 -59 c0 -5 -4 -10 -10 -10 -5 0 -10 5 -10 10 0 6 5 10 10 10
6 0 10 -4 10 -10z"/>
<path d="M2870 4014 c-284 -51 -511 -242 -602 -504 -31 -91 -39 -139 -39 -245
-1 -262 116 -482 340 -639 164 -115 412 -156 616 -101 204 55 390 212 485 408
53 111 73 199 72 327 0 132 -20 219 -77 335 -92 189 -246 323 -450 390 -64 21
-104 27 -200 30 -66 2 -131 2 -145 -1z m290 -163 c105 -33 179 -78 260 -160
156 -157 215 -372 160 -586 -43 -168 -166 -319 -322 -393 -97 -47 -167 -63
-273 -63 -163 0 -302 55 -423 166 -59 55 -80 83 -117 158 -56 115 -75 189 -75
292 0 157 60 303 174 423 56 59 87 81 160 118 50 24 120 51 156 59 84 19 214
13 300 -14z"/>
<path d="M2851 3774 c-169 -45 -310 -178 -373 -351 -27 -76 -29 -221 -4 -308
40 -135 139 -257 263 -322 287 -153 637 -16 749 293 105 287 -71 610 -373 689
-71 19 -191 18 -262 -1z m301 -157 c188 -92 278 -323 197 -506 -71 -161 -215
-250 -388 -239 -154 10 -264 85 -333 226 -30 61 -33 74 -33 162 0 87 3 101 32
160 56 113 122 175 226 212 81 29 224 21 299 -15z"/>
<path d="M2915 3561 c-94 -24 -164 -81 -206 -166 -29 -60 -31 -70 -27 -147 5
-105 39 -173 114 -229 93 -71 194 -87 297 -49 75 28 130 79 168 155 97 198
-33 425 -251 440 -36 2 -78 1 -95 -4z m149 -136 c47 -23 87 -81 93 -138 11
-92 -61 -184 -152 -195 -58 -6 -140 32 -174 83 -43 64 -29 167 31 221 62 57
124 66 202 29z"/>
<path d="M2912 3337 c-26 -28 -30 -92 -7 -123 23 -34 68 -48 109 -34 45 15 66
44 66 91 0 77 -116 122 -168 66z"/>
<path d="M1808 885 c-8 -18 -8 -29 -1 -36 17 -17 53 7 53 36 0 34 -36 34 -52
0z"/>
<path d="M2876 904 c-19 -18 -20 -28 -6 -55 19 -35 70 -14 70 30 0 12 -28 41
-40 41 -5 0 -16 -7 -24 -16z"/>
<path d="M2474 905 c-18 -13 -16 -14 19 -15 41 0 46 5 18 19 -13 7 -24 6 -37
-4z"/>
<path d="M3053 913 c-24 -9 -13 -23 18 -23 27 0 30 2 19 15 -13 16 -17 17 -37
8z"/>
</g>
</svg>
